HIERARCHY
ROOT Hips
{
	OFFSET 0.000000 0.000000 0.000000
	CHANNELS 6 Xposition Yposition Zposition Xrotation Yrotation Zrotation
	JOINT LeftUpLeg_virtual
	{
		OFFSET 0.000000 0.000000 0.000000
		CHANNELS 3 Xrotation Yrotation Zrotation
		JOINT LeftUpLeg
		{
			OFFSET 11.394100 -6.187798 -0.413800
			CHANNELS 3 Xrotation Yrotation Zrotation
			JOINT LeftLeg
			{
				OFFSET 0.430247 -32.302673 3.732800
				CHANNELS 3 Xrotation Yrotation Zrotation
				JOINT LeftFoot
				{
					OFFSET -0.430247 -48.264931 -6.423300
					CHANNELS 3 Xrotation Yrotation Zrotation
					JOINT LeftToeBase
					{
						OFFSET 4.230900 -16.068199 23.438400
						CHANNELS 3 Xrotation Yrotation Zrotation
						JOINT LeftToe_End
						{
							OFFSET 4.510700 0.695400 19.974600
							CHANNELS 3 Xrotation Yrotation Zrotation
							End Site
							{
								OFFSET 0 0 0
							}
						}
					}
				}
			}
		}
	}
	JOINT RightUpLeg_virtual
	{
		OFFSET 0.000000 0.000000 0.000000
		CHANNELS 3 Xrotation Yrotation Zrotation
		JOINT RightUpLeg
		{
			OFFSET -11.333700 -6.187798 -0.413800
			CHANNELS 3 Xrotation Yrotation Zrotation
			JOINT RightLeg
			{
				OFFSET -0.430392 -32.302628 3.733000
				CHANNELS 3 Xrotation Yrotation Zrotation
				JOINT RightFoot
				{
					OFFSET 0.430392 -48.264973 -6.423500
					CHANNELS 3 Xrotation Yrotation Zrotation
					JOINT RightToeBase
					{
						OFFSET -4.230900 -16.068199 23.438400
						CHANNELS 3 Xrotation Yrotation Zrotation
						JOINT RightToe_End
						{
							OFFSET -4.510700 0.695400 19.974600
							CHANNELS 3 Xrotation Yrotation Zrotation
							End Site
							{
								OFFSET 0 0 0
							}
						}
					}
				}
			}
		}
	}
	JOINT Spine_virtual
	{
		OFFSET 0.000000 0.000000 0.000000
		CHANNELS 3 Xrotation Yrotation Zrotation
		JOINT Spine
		{
			OFFSET -0.002400 12.777504 0.315300
			CHANNELS 3 Xrotation Yrotation Zrotation
			JOINT Spine1
			{
				OFFSET -0.002067 5.816869 0.032633
				CHANNELS 3 Xrotation Yrotation Zrotation
				JOINT Spine1_split
				{
					OFFSET -0.002067 5.816869 0.032633
					CHANNELS 3 Xrotation Yrotation Zrotation
					JOINT Spine2
					{
						OFFSET -0.002067 5.816869 0.032633
						CHANNELS 3 Xrotation Yrotation Zrotation
						JOINT Neck_virtual
						{
							OFFSET 0.000000 0.000000 0.000000
							CHANNELS 3 Xrotation Yrotation Zrotation
							JOINT Neck
							{
								OFFSET -0.003700 21.199493 -0.826900
								CHANNELS 3 Xrotation Yrotation Zrotation
								JOINT Head
								{
									OFFSET 0.000000 20.442200 4.834800
									CHANNELS 3 Xrotation Yrotation Zrotation
									JOINT HeadTop_End
									{
										OFFSET 0.000000 34.668396 4.968400
										CHANNELS 3 Xrotation Yrotation Zrotation
										End Site
										{
											OFFSET 0 0 0
										}
									}
								}
							}
						}
						JOINT LeftShoulder_virtual
						{
							OFFSET 0.000000 0.000000 0.000000
							CHANNELS 3 Xrotation Yrotation Zrotation
							JOINT LeftShoulder
							{
								OFFSET 3.288150 8.794197 -1.372250
								CHANNELS 3 Xrotation Yrotation Zrotation
								JOINT LeftShoulder_split
								{
									OFFSET 3.288150 8.794197 -1.372250
									CHANNELS 3 Xrotation Yrotation Zrotation
									JOINT LeftArm
									{
										OFFSET 11.953299 -2.279007 -0.146200
										CHANNELS 3 Xrotation Yrotation Zrotation
										JOINT LeftForeArm
										{
											OFFSET 18.448900 0.000000 0.000000
											CHANNELS 3 Xrotation Yrotation Zrotation
											JOINT LeftHand
											{
												OFFSET 29.527798 0.000000 0.000000
												CHANNELS 3 Xrotation Yrotation Zrotation
												End Site
												{
													OFFSET 0 0 0
												}
											}
										}
									}
								}
							}
						}
						JOINT RightShoulder_virtual
						{
							OFFSET 0.000000 0.000000 0.000000
							CHANNELS 3 Xrotation Yrotation Zrotation
							JOINT RightShoulder
							{
								OFFSET -3.249400 8.794197 -1.372250
								CHANNELS 3 Xrotation Yrotation Zrotation
								JOINT RightShoulder_split
								{
									OFFSET -3.249400 8.794197 -1.372250
									CHANNELS 3 Xrotation Yrotation Zrotation
									JOINT RightArm
									{
										OFFSET -11.953299 -2.279007 -0.146200
										CHANNELS 3 Xrotation Yrotation Zrotation
										JOINT RightForeArm
										{
											OFFSET -18.448900 0.000000 0.000000
											CHANNELS 3 Xrotation Yrotation Zrotation
											JOINT RightHand
											{
												OFFSET -29.527802 0.000000 0.000000
												CHANNELS 3 Xrotation Yrotation Zrotation
												End Site
												{
													OFFSET 0 0 0
												}
											}
										}
									}
								}
							}
						}
					}
				}
			}
		}
	}
}
MOTION
Frames: 4
Frame Time: 0.03333333
-0.100752 101.624817 0.033348 0.000000 0.000000 0.000000 2.828188 -5.508586 -1.330138 -18.810288 16.531563 11.759056 17.540587 9.934807 4.666955 -1.149721 2.968695 -10.383971 -0.000001 -0.000007 0.000005 0.000000 0.000000 0.000000 2.828188 -5.508586 -1.330138 -16.428113 -21.132204 -5.289929 17.637580 9.759351 -2.979298 -4.694547 1.187293 3.985398 -0.000003 0.000000 -0.000001 0.000000 0.000000 0.000000 2.828188 -5.508586 -1.330138 -0.411227 -1.029271 1.183744 -1.124193 -0.763623 0.960462 0.000000 0.000000 0.000000 0.000000 0.000000 0.000000 -1.125714 -0.723789 0.985440 -4.895965 1.540608 -0.449521 -0.934612 6.880854 -0.774390 0.000000 0.000000 0.000000 -1.125714 -0.723789 0.985440 -1.469254 10.517225 -4.984828 0.000000 0.000000 0.000000 43.879659 -68.213693 -24.791761 0.000001 -21.268109 -0.000000 0.000000 0.000000 0.000000 -1.125714 -0.723789 0.985440 3.669363 5.665987 1.464134 0.000000 0.000000 0.000000 -1.701522 36.578661 65.584959 0.000002 22.959756 0.000008 0.000000 0.000000 0.000000 
-0.053423 101.621117 0.016380 0.000000 0.000000 0.000000 2.785877 -5.430131 -1.275990 -18.768381 16.532406 11.702453 17.556837 9.923073 4.583926 -1.159499 2.917556 -10.304206 -0.000001 -0.000007 0.000005 0.000000 0.000000 0.000000 2.785877 -5.430131 -1.275990 -16.477189 -21.180184 -5.442634 17.705546 9.758451 -2.959350 -4.711227 1.201759 4.005357 -0.000002 -0.000000 0.000001 0.000000 0.000000 0.000000 2.785877 -5.430131 -1.275990 -0.425844 -1.106988 1.172796 -1.138106 -0.823450 0.951492 0.000000 0.000000 0.000000 0.000000 0.000000 0.000000 -1.139511 -0.784105 0.978433 -4.937642 1.583684 -0.410673 -0.868419 7.152525 -0.837618 0.000000 0.000000 0.000000 -1.139511 -0.784105 0.978433 -1.471644 10.508769 -4.946811 0.000000 0.000000 0.000000 43.432090 -68.283116 -25.363716 -0.000003 -21.330133 0.000004 0.000000 0.000000 0.000000 -1.139511 -0.784105 0.978433 3.663051 5.650922 1.476512 0.000000 0.000000 0.000000 -1.717226 36.859577 65.610360 0.000005 22.842787 -0.000020 0.000000 0.000000 0.000000 
0.012227 101.608917 -0.000206 0.000000 0.000000 0.000000 2.776753 -5.392359 -1.165142 -18.745466 16.607479 11.564908 17.566813 9.913502 4.546789 -1.179823 2.856039 -10.227378 -0.000001 -0.000007 0.000005 0.000000 0.000000 0.000000 2.776753 -5.392359 -1.165142 -16.654972 -21.183130 -5.685750 17.864821 9.756897 -2.935632 -4.748796 1.232357 4.032648 -0.000004 0.000006 0.000000 0.000000 0.000000 0.000000 2.776753 -5.392359 -1.165142 -0.414550 -1.166941 1.142922 -1.131372 -0.870494 0.928004 0.000000 0.000000 0.000000 0.000000 0.000000 0.000000 -1.132506 -0.832501 0.956358 -5.037497 1.635505 -0.388879 -0.900393 7.441775 -0.927431 0.000000 0.000000 0.000000 -1.132506 -0.832501 0.956358 -1.473701 10.490594 -4.887723 0.000000 0.000000 0.000000 43.137696 -68.429159 -25.722615 0.000006 -21.393971 0.000021 0.000000 0.000000 0.000000 -1.132506 -0.832501 0.956358 3.664919 5.654362 1.451228 0.000000 0.000000 0.000000 -1.796770 37.337123 65.625113 0.000000 22.587646 0.000009 0.000000 0.000000 0.000000 
0.118706 101.579697 -0.016617 0.000000 0.000000 0.000000 2.828599 -5.453386 -0.958997 -18.778926 16.860322 11.298425 17.588924 9.908365 4.597547 -1.230716 2.766121 -10.152602 -0.000001 -0.000008 0.000005 0.000000 0.000000 0.000000 2.828599 -5.453386 -0.958997 -17.052974 -21.018227 -6.070615 18.180174 9.753453 -2.892990 -4.816359 1.238008 4.073251 -0.000003 -0.000004 0.000001 0.000000 0.000000 0.000000 2.828599 -5.453386 -0.958997 -0.362841 -1.186875 1.083573 -1.092777 -0.887816 0.881203 0.000000 0.000000 0.000000 0.000000 0.000000 0.000000 -1.093512 -0.852416 0.909865 -5.248459 1.685504 -0.397724 -1.103953 7.675338 -1.046822 0.000000 0.000000 0.000000 -1.093512 -0.852416 0.909865 -1.474091 10.444456 -4.781208 0.000000 0.000000 0.000000 43.025219 -68.723471 -25.781324 -0.000001 -21.419729 0.000000 0.000000 0.000000 0.000000 -1.093512 -0.852416 0.909865 3.678722 5.687034 1.404696 0.000000 0.000000 0.000000 -2.010126 38.066642 65.582568 0.000003 22.077851 0.000020 0.000000 0.000000 0.000000 
